<svg height="512" viewBox="0 0 512 512" width="512" xmlns="http://www.w3.org/2000/svg"><g><path d="m173.449 455.924a517.97 517.97 0 0 1 -83.349-124.224 8 8 0 1 0 -14.44 6.889 533.926 533.926 0 0 0 85.921 128.061c9.849 10.9 20.234 21.767 30.869 32.3a8 8 0 1 0 11.261-11.366c-10.429-10.326-20.611-20.984-30.262-31.66z"/><path d="m102.7 416.324a8 8 0 1 0 -13.244 8.976 540.832 540.832 0 0 0 38.691 50.446 8 8 0 1 0 12.1-10.47 524.87 524.87 0 0 1 -37.547-48.952z"/><path d="m176.893 33.494a200.677 200.677 0 0 1 81.846-17.494 198.459 198.459 0 0 1 118.561 39.3 201.78 201.78 0 0 1 34.411 32.3 8 8 0 1 0 12.235-10.31 217.74 217.74 0 0 0 -37.146-34.859 214.9 214.9 0 0 0 -184.7-34.873 217.481 217.481 0 0 0 -31.744 11.332 8 8 0 0 0 6.537 14.6z"/><path d="m89.668 94.726a8 8 0 0 0 11.224-1.42 199.059 199.059 0 0 1 50.136-45.848 8 8 0 0 0 -8.628-13.477 215.026 215.026 0 0 0 -54.152 49.519 8 8 0 0 0 1.42 11.226z"/><path d="m89.568 166.927a8 8 0 0 0 10.158-4.984 167.921 167.921 0 0 1 159.013-113.943c72.944 0 138.946 48.7 160.505 118.417.058.189.124.377.2.562a121.47 121.47 0 0 0 7.579 15.414 8 8 0 1 0 13.877-7.965 107.759 107.759 0 0 1 -6.46-13.039c-23.713-76.195-95.917-129.389-175.701-129.389a183.925 183.925 0 0 0 -174.154 124.77 8 8 0 0 0 4.983 10.157z"/><path d="m197.19 434.468c-72.4-80.113-96.49-159.348-100.585-174.417a166.436 166.436 0 0 1 -4.06-68.644 8 8 0 1 0 -15.824-2.366 182.347 182.347 0 0 0 4.444 75.2c4.262 15.691 29.315 98.139 104.155 180.959 3.778 4.181 7.662 8.385 11.545 12.494a8 8 0 0 0 11.635-10.994c-3.806-4.021-7.61-8.138-11.31-12.232z"/><path d="m261.735 497.987c-10.192-8.944-20.263-18.246-29.936-27.65a8 8 0 0 0 -11.153 11.473c9.867 9.592 20.14 19.081 30.535 28.2a8 8 0 1 0 10.554-12.026z"/><path d="m440.556 226.367c-2.014-2.142-4.015-4.313-5.949-6.453-20.477-22.659-29.183-44.714-30.427-48.046a150.25 150.25 0 0 0 -20.788-42.658 8 8 0 1 0 -13.1 9.185 134.273 134.273 0 0 1 18.643 38.333c.045.148.094.295.148.441 1.67 4.559 11.146 28.565 33.654 53.472 2 2.217 4.077 4.466 6.163 6.686a8 8 0 0 0 11.657-10.96z"/><path d="m223.08 84.76a135.427 135.427 0 0 1 127.183 30.912 8 8 0 0 0 10.765-11.838 151.426 151.426 0 0 0 -142.143-34.514c-80.885 21.97-128.809 105.649-106.839 186.535a317.158 317.158 0 0 0 14.8 41.027 8 8 0 0 0 14.689-6.344 300.677 300.677 0 0 1 -14.053-38.877c-19.652-72.372 23.23-147.244 95.598-166.901z"/><path d="m305.216 492.876a757.194 757.194 0 0 1 -84.284-79.863 457.514 457.514 0 0 1 -66.711-95.8 8 8 0 1 0 -14.2 7.372 473.5 473.5 0 0 0 69.04 99.154 773.172 773.172 0 0 0 86.07 81.558 8 8 0 1 0 10.085-12.422z"/><path d="m358.605 186.974c1.171 3.387 12.258 33.993 40.39 65.123 8.834 9.776 18.347 19.491 28.275 28.877a8 8 0 0 0 10.992-11.627c-9.624-9.1-18.842-18.512-27.4-27.978-25.6-28.325-35.755-55.674-37.083-59.46a120.67 120.67 0 0 0 -115.04-85.909 8 8 0 1 0 0 16 104.586 104.586 0 0 1 99.753 74.62c.035.118.072.236.113.354z"/><path d="m199.224 360.4a8 8 0 1 0 13.059-9.245c-38-53.68-51.58-99.284-53.916-107.881a104.14 104.14 0 0 1 68.95-126.41 8 8 0 0 0 -4.824-15.256 120.14 120.14 0 0 0 -79.566 145.86c3.455 12.717 17.727 58.45 56.297 112.932z"/><path d="m340.488 480a727.953 727.953 0 0 1 -95.814-88.443c-4.641-5.135-9.215-10.444-13.6-15.778a8 8 0 1 0 -12.364 10.155c4.539 5.528 9.28 11.029 14.089 16.351a744.1 744.1 0 0 0 97.961 90.415 8 8 0 1 0 9.728-12.7z"/><path d="m439.126 313.048a543.4 543.4 0 0 1 -52-50.224 237.292 237.292 0 0 1 -16.189-20.007 8 8 0 0 0 -12.967 9.373 253.507 253.507 0 0 0 17.285 21.362 559.361 559.361 0 0 0 53.538 51.71 8 8 0 0 0 10.335-12.214z"/><path d="m239.856 146.522a71.98 71.98 0 0 1 88.071 49.593c.024.083.05.166.076.248.638 1.973 4.229 12.587 12.391 27.793a8 8 0 0 0 14.1-7.567 166.371 166.371 0 0 1 -11.226-25.03 88 88 0 0 0 -169.459 47.517c3.257 11.986 22.551 75.153 82.737 141.753 12.877 14.248 26.579 28.208 40.725 41.493a8 8 0 0 0 10.953-11.664c-13.831-12.987-27.224-26.632-39.808-40.558-57.745-63.9-76.08-123.852-79.168-135.221a72.084 72.084 0 0 1 50.608-88.357z"/><path d="m369.643 461.907c-12.386-9.077-25-19.1-37.494-29.794a8 8 0 0 0 -10.4 12.157c12.8 10.952 25.73 21.228 38.439 30.542a8 8 0 0 0 9.458-12.905z"/><path d="m436 351.724a572.764 572.764 0 0 1 -72.617-67.444c-37.545-41.546-50.016-81.058-50.762-83.5a56 56 0 0 0 -107.932 29.907c.286 1.051.925 3.3 1.989 6.557a8 8 0 0 0 15.207-4.974c-.954-2.919-1.509-4.874-1.756-5.779a40 40 0 0 1 77.112-21.3c.014.05.028.1.043.149.549 1.819 13.909 45.053 54.228 89.668a589.106 589.106 0 0 0 74.68 69.359 8 8 0 1 0 9.808-12.643z"/><path d="m393.653 439.816c-20.014-14.252-59.815-45.047-101.5-91.17a359.841 359.841 0 0 1 -58.688-87.557 8 8 0 1 0 -14.491 6.782 376.075 376.075 0 0 0 61.308 91.5c42.7 47.248 83.541 78.846 104.086 93.476a8 8 0 0 0 9.281-13.034z"/><path d="m412.918 414.279c-18.959-13.409-56.773-42.554-97.019-87.089-49.833-55.143-64.3-106.912-64.89-109.088a8 8 0 0 1 15.44-4.2c.138.5 14.376 50.61 61.321 102.558 3.991 4.416 8.133 8.862 12.311 13.214a8 8 0 1 0 11.542-11.08c-4.067-4.237-8.1-8.564-11.982-12.862-44-48.691-57.645-95.652-57.766-96.077a24 24 0 0 0 -46.306 12.645c.632 2.328 16.089 57.672 68.459 115.622 41.279 45.677 80.153 75.633 99.651 89.423a8 8 0 1 0 9.239-13.062z"/><path d="m427.481 385.4c-4.572-3.327-9.372-6.968-14.265-10.825-13.011-10.254-26.057-21.5-38.773-33.427a8 8 0 1 0 -10.945 11.67c13.049 12.239 26.444 23.787 39.814 34.324 5.054 3.983 10.019 7.75 14.757 11.2a8 8 0 1 0 9.412-12.938z"/></g></svg>