<svg id="Layer_1" enable-background="new 0 0 512 512" height="512" viewBox="0 0 512 512" width="512" xmlns="http://www.w3.org/2000/svg"><g><path d="m481.099 446.5h-450.199c-17.065 0-30.899-13.834-30.899-30.899v-319.202c.001-17.065 13.835-30.899 30.899-30.899h450.199c17.065 0 30.899 13.834 30.899 30.899v319.203c0 17.064-13.834 30.898-30.899 30.898z" fill="#fafafa"/><path d="m61.812 446.5 423.538-314.516v314.516z" fill="#f5f5f5"/><path d="m61.812 446.5h-30.912c-17.065 0-30.899-13.834-30.899-30.899v-319.202c.001-17.065 13.835-30.899 30.899-30.899h30.912z" fill="#f44336"/><path d="m30.907 65.5h30.905v381h-30.905z" fill="#e53935"/><path d="m450.188 446.5h30.912c17.065 0 30.899-13.834 30.899-30.899v-319.202c0-17.065-13.834-30.899-30.899-30.899h-30.912z" fill="#f44336"/><path d="m481.093 65.5h-30.905c17.069 0 30.905 13.831 30.905 30.892v319.216c0 17.061-13.837 30.892-30.905 30.892h30.905c17.069 0 30.905-13.831 30.905-30.892v-319.216c0-17.061-13.837-30.892-30.905-30.892z" fill="#e53935"/><path d="m30.907 65.5h450.186v30.92l-225.093 167.501-225.093-174.816z" fill="#fafafa"/><path d="m505.882 77.973c-10.191-13.686-29.553-16.521-43.245-6.332l-206.637 153.768-206.638-153.768c-13.691-10.189-33.052-7.353-43.245 6.332-10.192 13.685-7.356 33.038 6.335 43.227l225.093 167.5c5.476 4.076 11.966 6.113 18.455 6.113 6.49 0 12.979-2.037 18.456-6.113l225.093-167.501c13.69-10.188 16.526-29.541 6.333-43.226z" fill="#f44336"/><g><path d="m505.882 77.973c-9.465-12.71-26.837-16.054-40.234-8.305 3.54 2.042 6.733 4.82 9.329 8.305 10.193 13.685 7.357 33.038-6.334 43.227l-225.093 167.5c-.968.72-1.977 1.354-3.003 1.947 4.777 2.762 10.11 4.166 15.452 4.166 6.49 0 12.979-2.037 18.456-6.113l225.093-167.501c13.691-10.188 16.527-29.541 6.334-43.226z" fill="#e53935"/></g></g></svg>