<svg id="Layer_1" enable-background="new 0 0 512 512" viewBox="0 0 512 512" xmlns="http://www.w3.org/2000/svg"><path d="m503.294 292.516c-1.67-4.679-5.958-7.767-10.924-7.866l-49.381-.992-18.844-45.651c-1.896-4.593-6.322-7.449-11.296-7.326-4.967.143-9.229 3.267-10.857 7.959l-2.981 8.585c-23.06-25.408-52.603-43.061-85.267-51.318 28.94-15.404 48.691-45.882 48.691-80.89 0-50.493-41.079-91.572-91.572-91.572s-91.572 41.079-91.572 91.572c0 35.034 19.779 65.53 48.754 80.924-26.603 6.762-51.344 19.802-72.21 38.34-2.479-.211-4.206-.491-5.581-.992-2.505-.912-5.422-3.121-11.232-7.523-1.478-1.12-3.123-2.367-4.979-3.756-10.467-7.835-24.531-7.835-34.996 0-1.856 1.389-3.502 2.636-4.979 3.756-5.811 4.402-8.728 6.612-11.232 7.523s-6.159 1.094-13.44 1.456c-1.852.092-3.913.195-6.229.324-13.053.726-23.826 9.766-26.81 22.496-.528 2.257-.988 4.27-1.4 6.077-1.621 7.108-2.435 10.675-3.768 12.983-1.332 2.308-4.015 4.797-9.358 9.754-1.36 1.261-2.874 2.665-4.564 4.252-9.532 8.947-11.975 22.797-6.077 34.465 1.046 2.069 1.987 3.906 2.834 5.555 3.326 6.487 4.996 9.743 5.459 12.368s.008 6.255-.899 13.488c-.23 1.84-.487 3.889-.763 6.192-1.552 12.98 5.48 25.161 17.498 30.308 2.132.913 4.034 1.715 5.743 2.435.068.029.131.055.198.083l-26.673 57.29c-1.257 2.702-.909 5.878.903 8.244 1.814 2.365 4.793 3.528 7.727 3.013l29.167-5.096 14.876 25.6c1.437 2.471 4.075 3.98 6.916 3.98.121 0 .242-.003.363-.008 2.978-.135 5.633-1.914 6.891-4.615l26.879-57.732c3.88-1.154 6.285-1.736 8.237-1.736 2.665 0 6.162 1.079 13.128 3.229.639.197 1.313.405 2.006.618l19.205 44.589c1.179 2.737 3.781 4.592 6.753 4.813.2.015.398.022.597.022 2.752 0 5.329-1.419 6.796-3.782l15.611-25.158 29.006 5.94c2.923.597 5.93-.477 7.811-2.788 1.881-2.312 2.321-5.477 1.143-8.214l-21.69-50.36c.287-.122.568-.242.863-.368 12.018-5.147 19.05-17.328 17.498-30.309-.275-2.301-.532-4.35-.763-6.188-.107-.855-.208-1.657-.301-2.416h152.111l-8.235 34.12c-1.165 4.829.731 9.761 4.833 12.564 2.036 1.392 4.364 2.088 6.69 2.087 2.36 0 4.719-.715 6.771-2.144l40.532-28.223 42.078 25.857c4.232 2.6 9.508 2.321 13.442-.712s5.547-8.065 4.107-12.822l-14.315-47.27 37.594-32.029c3.783-3.22 5.147-8.326 3.477-13.005zm-110.352-27.814-7.152 20.595-49.242 3.814c-4.943.383-9.042 3.713-10.442 8.484-1.4 4.77.249 9.787 4.201 12.78l36.582 27.718h-88.868l39.219-44.282c1.867-2.109 2.488-5.044 1.635-7.729l-24.742-77.794c38.708 5.693 73.717 25.517 98.809 56.414zm-177.118 25.928c-1.691-1.587-3.205-2.991-4.564-4.252-5.344-4.958-8.026-7.446-9.359-9.754-1.332-2.309-2.146-5.876-3.768-12.984-.412-1.807-.872-3.819-1.4-6.076-2.318-9.9-9.36-17.547-18.512-20.809 20.522-14.987 44.277-24.709 69.363-28.44l-24.734 77.767c-.854 2.685-.232 5.62 1.635 7.729l39.219 44.282h-48.351c.885-1.921 2.104-4.3 3.714-7.44.847-1.65 1.789-3.487 2.835-5.558 5.896-11.667 3.454-25.517-6.078-34.465zm55.019-84.042h.021.018c1.994 0 3.979.051 5.96.124l25.41 79.891-31.39 35.441-31.389-35.441 25.411-79.893c1.982-.074 3.968-.122 5.959-.122zm-75.551-91.572c0-41.671 33.901-75.572 75.572-75.572s75.572 33.901 75.572 75.572c0 41.667-33.895 75.565-75.56 75.572-.004 0-.009 0-.013 0s-.008 0-.012 0c-41.665-.007-75.559-33.906-75.559-75.572zm-121.9 348.27-9.978-17.169c-1.684-2.897-4.996-4.436-8.294-3.861l-19.561 3.417 19.629-42.16c1.507 1.875 3.288 4.631 5.984 8.806 1.005 1.558 2.125 3.291 3.394 5.231 5.459 8.348 14.445 13.118 23.958 13.235zm104.996-31.283c-3.286-.67-6.636.773-8.403 3.619l-10.47 16.872-9.595-22.278c7.449-1.501 14.182-5.91 18.602-12.666 1.27-1.941 2.39-3.676 3.396-5.233 3.954-6.124 5.938-9.197 7.98-10.91.639-.536 1.409-1.044 2.37-1.575l15.573 36.156zm20.244-73.502c.227 1.812.479 3.829.751 6.096.712 5.96-2.393 11.338-7.91 13.702-2.1.899-3.974 1.689-5.656 2.398-16.406 6.914-17.684 7.985-27.341 22.94-.991 1.535-2.094 3.244-3.345 5.155-3.285 5.024-9.123 7.146-14.867 5.412-2.187-.661-4.129-1.26-5.874-1.799-17.012-5.25-18.68-5.25-35.691 0-1.745.538-3.688 1.138-5.875 1.799-5.746 1.734-11.581-.388-14.866-5.411-1.25-1.912-2.353-3.62-3.344-5.153-9.657-14.957-10.936-16.029-27.341-22.942-1.683-.709-3.558-1.499-5.657-2.398-5.518-2.364-8.622-7.742-7.91-13.702.271-2.269.524-4.287.752-6.1 2.215-17.663 1.925-19.306-6.199-35.147-.833-1.625-1.761-3.434-2.791-5.472-2.708-5.357-1.63-11.473 2.747-15.581 1.666-1.563 3.157-2.946 4.496-4.188 13.052-12.107 13.886-13.552 17.845-30.909.406-1.781.858-3.763 1.379-5.986 1.369-5.845 6.127-9.837 12.12-10.17 2.28-.127 4.312-.228 6.136-.319 17.781-.886 19.349-1.456 33.539-12.207 1.456-1.103 3.076-2.331 4.905-3.7 2.402-1.798 5.156-2.698 7.91-2.698s5.508.899 7.91 2.698c1.829 1.369 3.45 2.597 4.905 3.7 14.19 10.751 15.758 11.321 33.538 12.207 1.824.091 3.855.192 6.136.319 5.994.333 10.751 4.325 12.12 10.169.521 2.223.973 4.206 1.379 5.986 3.96 17.358 4.794 18.802 17.846 30.909 1.339 1.242 2.83 2.626 4.496 4.189 4.377 4.108 5.455 10.224 2.747 15.581-1.03 2.039-1.959 3.849-2.793 5.475-8.123 15.839-8.412 17.481-6.197 35.147zm251.15-31.368c-3.589 3.057-5.024 7.948-3.657 12.458l11.937 39.414-35.086-21.56c-4.017-2.468-9.11-2.323-12.979.371l-33.796 23.533 9.663-40.033c1.104-4.581-.608-9.38-4.365-12.227l-32.823-24.87 41.06-3.181c4.699-.365 8.734-3.478 10.28-7.929l13.509-38.902 15.713 38.065c1.799 4.357 6.006 7.233 10.718 7.328l41.173.827zm-333.238-75.543c-39.63 0-71.871 32.241-71.871 71.871s32.241 71.871 71.871 71.871c39.629 0 71.87-32.241 71.87-71.871s-32.241-71.871-71.87-71.871zm0 127.741c-30.808 0-55.871-25.063-55.871-55.871s25.063-55.871 55.871-55.871c30.807 0 55.87 25.063 55.87 55.871s-25.063 55.871-55.87 55.871zm29.304-92.395c-4.665.018-9.04 1.853-12.319 5.165l-25.4 25.653-8.586-8.585c-3.3-3.3-7.688-5.118-12.355-5.118s-9.056 1.817-12.355 5.117-5.117 7.688-5.117 12.355c0 4.668 1.817 9.056 5.117 12.355l20.99 20.99c3.3 3.3 7.688 5.117 12.355 5.117s9.056-1.817 12.355-5.117c7.982-7.982 16.03-16.146 23.812-24.04 4.652-4.718 9.304-9.436 13.967-14.143 6.767-6.829 6.729-17.896-.083-24.67-3.295-3.278-7.665-5.08-12.311-5.08-.023.001-.046.001-.07.001zm1.099 18.489c-4.673 4.716-9.334 9.443-13.995 14.171-7.763 7.874-15.791 16.017-23.733 23.959-.355.355-.763.43-1.041.43s-.686-.075-1.041-.431l-20.991-20.991c-.355-.356-.431-.763-.431-1.042 0-.278.075-.686.432-1.042.355-.355.763-.43 1.041-.43s.686.075 1.042.431l14.271 14.271c1.5 1.5 3.535 2.343 5.656 2.343h.02c2.129-.005 4.168-.859 5.665-2.371l31.058-31.366c.343-.347.739-.421 1.012-.422.274-.024.683.072 1.037.425.566.565.566 1.491-.002 2.065z"/></svg>