<svg id="object" height="512" viewBox="0 0 32 32" width="512" xmlns="http://www.w3.org/2000/svg"><path d="m8 21h-6a1 1 0 0 0 -1 1v8a1 1 0 0 0 1 1h6a1 1 0 0 0 1-1v-8a1 1 0 0 0 -1-1zm-5 2h4v2h-4zm4 6h-4v-2h4z"/><path d="m19 17h-6a1 1 0 0 0 -1 1v12a1 1 0 0 0 1 1h6a1 1 0 0 0 1-1v-12a1 1 0 0 0 -1-1zm-5 6h4v2h-4zm0-4h4v2h-4zm4 10h-4v-2h4z"/><path d="m30 13h-6a1 1 0 0 0 -1 1v16a1 1 0 0 0 1 1h6a1 1 0 0 0 1-1v-16a1 1 0 0 0 -1-1zm-1 8h-4v-2h4zm-4 2h4v2h-4zm0-8h4v2h-4zm4 14h-4v-2h4z"/><path d="m30.92 1.62a1 1 0 0 0 -.54-.54 1 1 0 0 0 -.38-.08h-4a1 1 0 0 0 0 2h1.59l-1.36 1.36-4.49 5.39-5.29-2.64a1 1 0 0 0 -1.16.19l-5.39 5.44-4.39-2.6a1 1 0 0 0 -1.06 0l-3 2a1 1 0 0 0 1.1 1.66l2.45-1.62 4.52 2.68a1.06 1.06 0 0 0 .51.14 1 1 0 0 0 .71-.3l5.46-5.48 5.35 2.67a1 1 0 0 0 1.22-.25l4.94-5.93 1.29-1.3v1.59a1 1 0 0 0 2 0v-4a1 1 0 0 0 -.08-.38z"/></svg>