<svg id="OBJECT" height="512" viewBox="0 0 512 512" width="512" xmlns="http://www.w3.org/2000/svg"><path d="m511.69 494-50-241a15 15 0 0 0 -14.69-12h-48.69c14.21-31 21.37-56.44 21.37-76 0-91-74-165-165-165s-165 74-165 165c0 19.56 7.17 45 21.37 76h-46.05a15 15 0 0 0 -14.69 12l-50 241a15 15 0 0 0 14.69 18h482a15 15 0 0 0 14.69-18zm-257.01-464c74.44 0 135 60.56 135 135 0 58.2-88.67 185.46-135 245.69-46.33-60.23-135-187.49-135-245.69 0-74.44 60.56-135 135-135zm-221.25 452 43.78-211h48.79q16.74 31.15 41.1 68.3c37.5 57.08 75.5 104.61 75.9 105.08a15 15 0 0 0 23.41 0c.38-.47 38.38-48 75.83-105.08q24.38-37.12 41.11-68.3h51.46l43.78 211z"/><path d="m339.68 165a85 85 0 1 0 -85 85 85.1 85.1 0 0 0 85-85zm-140 0a55 55 0 1 1 55 55 55.06 55.06 0 0 1 -55-55z"/></svg>