<svg xmlns="http://www.w3.org/2000/svg" width="20" height="20" data-bbox="2.29 2.293 15.422 15.417" data-type="ugc"><path fill="none" stroke="#404553" stroke-width="1.25" d="M2.29 4.17a1.875 1.875 0 0 1 1.875-1.877h11.672c1.036 0 1.875.84 1.875 1.875l-.002 11.667c0 1.035-.84 1.875-1.875 1.875H4.175a1.875 1.875 0 0 1-1.874-1.874z"/><path fill="#FEEE00" stroke="#404553" stroke-width="1.25" d="M2.295 8.132a1.667 1.667 0 0 1 1.667-1.673h12.082a1.667 1.667 0 1 1 0 3.334H3.962a1.667 1.667 0 0 1-1.667-1.661Z"/><mask id="a" fill="#fff"><path fill-rule="evenodd" d="M5.004 13.967a.625.625 0 0 1 .625-.633h4.582a.625.625 0 1 1 0 1.25H5.63a.625.625 0 0 1-.625-.617Z" clip-rule="evenodd"/></mask><path fill="#404553" d="M5.629 14.585h4.582v-2.5H5.63v2.5Zm4.582-1.25H5.63v2.5h4.582zm-4.582 0c.342 0 .62.274.625.617l-2.5.031a1.875 1.875 0 0 0 1.875 1.851zm3.957.623a.625.625 0 0 1 .625-.623v2.5a1.875 1.875 0 0 0 1.875-1.87zm.625.627a.625.625 0 0 1-.625-.627l2.5.007a1.875 1.875 0 0 0-1.875-1.88zm-4.582-2.5a1.875 1.875 0 0 0-1.875 1.898l2.5-.031a.625.625 0 0 1-.625.633z" mask="url(#a)"/></svg>