<svg xmlns="http://www.w3.org/2000/svg" data-bbox="40.3 140.4 720.3 520" data-type="shape" viewBox="0 0 799.9 799.9"><path d="M40.3 579.9V221.5c.5-1.2.6-2.5.8-3.7.9-8.9 2.8-17.5 5.9-25.8 6.2-16.2 16.6-29 31.5-38 12.6-7.6 26.5-11.2 41.1-12.8 3-.3 6-.5 9-.8h544.6c.6.3 1.2.3 1.9.3 11.5.5 22.7 2.5 33.5 6.4 14.3 5.2 26.4 13.6 35.6 25.8 8 10.7 12.6 22.9 15.1 35.9.6 3.2.8 6.5 1.3 9.7v363.7c-.5 1.7-.2 3.5-.5 5.2-1 6.7-2.5 13.3-4.8 19.8-5.7 16-15.3 29-29.6 38.4-10.3 6.8-21.7 10.8-33.7 13-3.8.7-7.7 1.2-11.6 1.8h-559c-.7-.4-1.6-.3-2.4-.4-10.4-1.2-20.5-3.4-30.1-7.5-15.8-6.7-28.2-17.3-36.7-32.3-5.7-10.1-8.9-21-10.6-32.4-.4-2.6-.3-5.3-1.3-7.9m113.3-332.1c-9.2-.2-15.3 8.5-12.1 15.5 1.1 2.4 2.7 4.3 4.7 5.9l23.4 19.2c31.7 26 63.4 52.1 95 78.1 25.8 21.2 51.5 42.3 77.3 63.5 18.8 15.4 37.6 30.9 56.3 46.3 2.3 1.9 2.4 1.9 4.6.1 6.3-5.2 12.6-10.3 18.9-15.5 26.8-22 53.6-44 80.5-66 23.1-19 46.2-37.9 69.4-56.9 23-18.9 46-37.7 69-56.6 5.4-4.5 11-8.8 16.3-13.4 3.4-3 5.2-7.1 3.6-11.7s-4.7-7.8-9.8-8.3c-3.8-.4-7.3.7-10.4 2.8-21 14.3-42.1 28.5-63.1 42.8-14.8 10-29.5 20-44.3 30-26.5 18-53.1 35.9-79.7 53.9-8.8 6-17.6 11.9-26.4 17.9-8.1 5.5-16.2 10.9-24.2 16.4-1.4 1-2.6 1.1-3.9 0-.4-.3-.8-.5-1.2-.8-19.8-13.5-39.7-26.9-59.5-40.4-18.2-12.3-36.4-24.7-54.6-37-23-15.6-45.9-31.1-68.9-46.7-17.8-12.1-35.6-24.1-53.4-36.2-2.7-2-5.6-2.9-7.5-2.9"/></svg>