<svg xmlns="http://www.w3.org/2000/svg" width="800" height="800" data-bbox="36.083 0 415.028 487.194" data-type="shape" viewBox="0 0 487.194 487.194"><path d="M264.911 0c-28.5 0-55.4 6.4-79.5 17.8-63.6 29.5-107.6 93.8-107.6 168.5v30.9l-37.9 72.4c-9.6 18.3-.5 33.2 20.1 33.2h17.8v68.8c0 21.5 17.6 39.1 39.1 39.1l53.7-8 .1 53.7v.4c.3 6.9 6.1 11.4 13.3 10.2l193.5-34.2c7.3-1.3 13.3-8.4 13.3-15.8V323.2c37.1-34 60.3-82.9 60.3-137.1-.1-102.8-83.4-186.1-186.2-186.1m95 282.6c-44.7 44.7-112.9 51.8-165 21.1l-.3-.2c-20.5 15.5-42.5 18.2-57.8 15.8-5.1-.8-6.2-7.7-1.5-10 14-6.9 22.9-20.6 28-31.7l-1.4-1.1c-47.3-53.4-45.4-135.1 5.7-186.2 53.1-53.1 139.2-53.1 192.3 0 53.1 53 53.1 139.2 0 192.3"/><path d="M263.511 77.6c-60.1 0-109 48.9-109 109s48.9 109 109 109 109-48.9 109-109-48.9-109-109-109m-32.2 34.4c-6.6 9.2-13 20.9-17.4 35.2h-21.4c8.6-15.6 22.3-28.1 38.8-35.2m-45.7 97.6c-2.2-7.3-3.3-15-3.3-23s1.2-15.7 3.3-23h24.5c-1.2 7.2-1.9 14.8-1.9 23s.7 15.9 1.9 23zm6.9 16.4h21.4c4.4 14.3 10.8 26 17.4 35.2-16.5-7.1-30.2-19.6-38.8-35.2m62.8 38.3c-7.9-8-17.7-20.6-24.2-38.3h24.2zm0-54.7h-28.7c-1.4-7.1-2.2-14.7-2.2-23s.8-16 2.2-23h28.7zm0-62.4h-24.2c6.4-17.9 16.3-30.5 24.2-38.5zm79.2 0h-21.4c-4.4-14.3-10.8-26-17.4-35.2 16.5 7.1 30.2 19.6 38.8 35.2m-62.8-38.3c7.9 8 17.7 20.6 24.2 38.3h-24.2zm0 54.7h28.7c1.4 7.1 2.2 14.7 2.2 23s-.8 16-2.2 23h-28.7zm0 62.4h24.2c-6.4 17.9-16.3 30.5-24.2 38.5zm24 35.2c6.6-9.2 13-20.9 17.4-35.2h21.4c-8.6 15.6-22.3 28.1-38.8 35.2m21.2-51.6c1.2-7.2 1.9-14.8 1.9-23s-.7-15.9-1.9-23h24.5c2.2 7.3 3.3 15 3.3 23s-1.2 15.7-3.3 23z"/></svg>