<svg xmlns="http://www.w3.org/2000/svg" width="20" height="20" data-bbox="2.6 2.6 14.803 14.805" data-type="ugc"><path fill="none" stroke="#404553" stroke-width="1.258" d="M2.6 4.984A2.383 2.383 0 0 1 4.983 2.6H15.02a2.383 2.383 0 0 1 2.383 2.384L17.4 15.022a2.383 2.383 0 0 1-2.383 2.383H4.993a2.383 2.383 0 0 1-2.384-2.381z"/><path fill="#FEEE00" stroke="#404553" stroke-width=".968" d="M5.65 5.416q.002-.016.018-.018h2.514q.016.002.018.018L8.198 8.63q-.002.016-.018.018H5.678a.02.02 0 0 1-.018-.018l-.01-3.213ZM5.65 11.039q.002-.017.018-.018h2.514q.016.001.018.018l-.002 3.213q-.002.017-.018.018H5.678a.02.02 0 0 1-.018-.018z"/><mask id="a" fill="#fff"><path fill-rule="evenodd" d="M9.384 5.316a.395.395 0 0 1 .395-.402h4.83a.395.395 0 1 1 0 .79h-4.83a.395.395 0 0 1-.395-.388" clip-rule="evenodd"/></mask><path fill="#404553" d="M9.78 6.85h4.828V2.977H9.78zm4.828-3.082H9.78V7.64h4.83V3.768Zm-4.829 0a1.54 1.54 0 0 1 1.54 1.515l-3.87.065a2.33 2.33 0 0 0 2.33 2.292zm3.288 1.535a1.54 1.54 0 0 1 1.541-1.535V7.64a2.33 2.33 0 0 0 2.332-2.322zm1.541 1.547a1.54 1.54 0 0 1-1.54-1.547l3.872.015a2.33 2.33 0 0 0-2.332-2.34zM9.78 2.977a2.33 2.33 0 0 0-2.33 2.371l3.87-.065A1.54 1.54 0 0 1 9.78 6.85z" mask="url(#a)"/><mask id="b" fill="#fff"><path fill-rule="evenodd" d="M9.384 10.938a.395.395 0 0 1 .395-.402h4.83a.395.395 0 0 1 0 .79h-4.83a.395.395 0 0 1-.395-.388" clip-rule="evenodd"/></mask><path fill="#404553" d="M9.78 12.472h4.828V8.6H9.78zm4.828-3.081H9.78v3.872h4.83V9.39Zm-4.829 0a1.54 1.54 0 0 1 1.54 1.515l-3.87.064a2.33 2.33 0 0 0 2.33 2.293zm3.288 1.534a1.54 1.54 0 0 1 1.541-1.534v3.872a2.33 2.33 0 0 0 2.332-2.322zm1.541 1.547a1.54 1.54 0 0 1-1.54-1.547l3.872.016A2.33 2.33 0 0 0 14.608 8.6zM9.78 8.6a2.33 2.33 0 0 0-2.33 2.37l3.87-.064a1.54 1.54 0 0 1-1.54 1.566z" mask="url(#b)"/></svg>