<svg xmlns="http://www.w3.org/2000/svg" width="21" height="20" data-bbox="2.782 2.271 16.385 15.437" data-type="ugc"><g stroke="#404553"><path fill="none" stroke-width="1.25" d="M4.726 5.626V3.938c0-.92.746-1.667 1.667-1.667H17.5c.92 0 1.666.746 1.666 1.667l-.002 12.089c0 .92-.747 1.666-1.667 1.666H6.364c-.92 0-1.667-.746-1.667-1.667V8.641M5.373 6.675H2.782M5.347 8.455H2.782M5 5h14.167"/><path fill="#FEEE00" stroke-width="1.25" d="M15.208 11.667v4.999c0 .575-.467 1.042-1.042 1.042H4.167a1.04 1.04 0 0 1-1.042-1.042v-4.999c0-.575.467-1.042 1.042-1.042h9.999c.575 0 1.042.467 1.042 1.042z"/><path fill="none" stroke-width=".833" d="M10.417 14.167a1.25 1.25 0 1 1-2.5 0 1.25 1.25 0 0 1 2.5 0zM5 14.166h1.667M11.667 14.166h1.666"/><path fill="#FEEE00" stroke-width="1.25" d="M11.448 8.822V5.006h4.583v3.816l-2.03-.935-.261-.12-.262.12z"/></g></svg>