<svg xmlns="http://www.w3.org/2000/svg" data-bbox="24.99 24.996 666.65 332.384" data-type="ugc" viewBox="0 0 716.64 382.38"><path fill="none" stroke="#dfc822" stroke-linecap="round" stroke-linejoin="round" stroke-width="49.99" d="M24.99 41.73v224.3c.2 50.72 45.29 91.52 100.3 91.35h355.86c10.08 0 18.27-7.49 18.27-16.57v-224.3c-.27-50.68-45.36-91.52-100.3-91.32H43.19c-10.05 0-18.2 7.46-18.2 16.54m497.06 87.53 146.96-98.61c12.75-9.72 22.63-7.29 22.63 10.28v300.71c0 20-12.08 17.57-22.63 10.28l-146.96-98.41V129.25h0Z"/><path fill="#dfc822" d="M478.65 39.67v305.22H45.77V39.67z"/><path fill="#dfc822" d="m426.37 187.67 257 140v-280z"/></svg>